<svg width="30" height="30" viewBox="0 0 30 30" fill="none" xmlns="http://www.w3.org/2000/svg">
<g clip-path="url(#clip0_234_1299)">
<path d="M11.248 13.4375C9.34805 13.4375 7.81055 11.9 7.81055 10C7.81055 8.1 9.34805 6.5625 11.248 6.5625C13.148 6.5625 14.6855 8.1 14.6855 10C14.6855 11.9 13.148 13.4375 11.248 13.4375ZM11.248 8.4375C10.3855 8.4375 9.68555 9.1375 9.68555 10C9.68555 10.8625 10.3855 11.5625 11.248 11.5625C12.1105 11.5625 12.8105 10.8625 12.8105 10C12.8105 9.1375 12.1105 8.4375 11.248 8.4375Z" fill="#737373"/>
<path d="M18.75 28.4336H11.25C4.4625 28.4336 1.5625 25.5336 1.5625 18.7461V11.2461C1.5625 4.45859 4.4625 1.55859 11.25 1.55859H16.25C16.7625 1.55859 17.1875 1.98359 17.1875 2.49609C17.1875 3.00859 16.7625 3.43359 16.25 3.43359H11.25C5.4875 3.43359 3.4375 5.48359 3.4375 11.2461V18.7461C3.4375 24.5086 5.4875 26.5586 11.25 26.5586H18.75C24.5125 26.5586 26.5625 24.5086 26.5625 18.7461V12.4961C26.5625 11.9836 26.9875 11.5586 27.5 11.5586C28.0125 11.5586 28.4375 11.9836 28.4375 12.4961V18.7461C28.4375 25.5336 25.5375 28.4336 18.75 28.4336Z" fill="#737373"/>
<path d="M26.5605 7.1875H19.6855C19.173 7.1875 18.748 6.7625 18.748 6.25C18.748 5.7375 19.173 5.3125 19.6855 5.3125H26.5605C27.073 5.3125 27.498 5.7375 27.498 6.25C27.498 6.7625 27.073 7.1875 26.5605 7.1875Z" fill="#737373"/>
<path d="M23.127 10.6289C22.6145 10.6289 22.1895 10.2039 22.1895 9.69141V2.81641C22.1895 2.30391 22.6145 1.87891 23.127 1.87891C23.6395 1.87891 24.0645 2.30391 24.0645 2.81641V9.69141C24.0645 10.2039 23.6395 10.6289 23.127 10.6289Z" fill="#737373"/>
<path d="M3.33665 24.6281C3.03665 24.6281 2.73665 24.4781 2.56165 24.2156C2.27415 23.7906 2.38665 23.2031 2.81165 22.9156L8.97415 18.7781C10.3241 17.8781 12.1866 17.9781 13.4116 19.0156L13.8241 19.3781C14.4491 19.9156 15.5116 19.9156 16.1241 19.3781L21.3241 14.9156C22.6616 13.7781 24.7366 13.7781 26.0741 14.9156L28.1116 16.6656C28.4991 17.0031 28.5491 17.5906 28.2116 17.9906C27.8741 18.3781 27.2866 18.4281 26.8866 18.0906L24.8491 16.3406C24.2241 15.8031 23.1616 15.8031 22.5491 16.3406L17.3491 20.8031C16.0241 21.9406 13.9366 21.9406 12.5991 20.8031L12.1866 20.4406C11.6116 19.9531 10.6616 19.9031 10.0241 20.3406L3.87415 24.4781C3.69915 24.5781 3.51165 24.6281 3.33665 24.6281Z" fill="#737373"/>
</g>
<defs>
<clipPath id="clip0_234_1299">
<rect width="30" height="30" fill="white"/>
</clipPath>
</defs>
</svg>
