<svg width="18" height="18" viewBox="0 0 18 18" fill="none" xmlns="http://www.w3.org/2000/svg">
<path d="M14.2497 17.0622C13.1997 17.0622 12.2172 16.6047 11.5422 15.8022C11.5347 15.7872 11.4897 15.7497 11.4522 15.6897C11.3697 15.6072 11.2722 15.4572 11.1897 15.3147C10.8597 14.7822 10.6797 14.1522 10.6797 13.4922C10.6797 12.3972 11.1672 11.3847 12.0147 10.7097C12.6447 10.2072 13.4397 9.92969 14.2422 9.92969C15.1122 9.92969 15.9147 10.2297 16.5597 10.7922C16.6497 10.8522 16.7547 10.9647 16.8522 11.0697C17.4597 11.7372 17.7972 12.5922 17.7972 13.4847C17.7972 14.1372 17.6172 14.7747 17.2797 15.3222C17.0997 15.6372 16.8522 15.9222 16.5672 16.1622C15.9597 16.7472 15.1272 17.0622 14.2497 17.0622ZM14.2497 11.0622C13.6947 11.0622 13.1697 11.2497 12.7272 11.6022C12.1497 12.0597 11.8122 12.7572 11.8122 13.4997C11.8122 13.9422 11.9322 14.3772 12.1647 14.7522C12.2247 14.8572 12.2847 14.9397 12.3522 15.0222C12.3672 15.0372 12.4122 15.0822 12.4497 15.1422C12.8622 15.6297 13.5372 15.9447 14.2497 15.9447C14.8422 15.9447 15.4122 15.7272 15.8472 15.3372C16.0422 15.1722 16.2072 14.9772 16.3272 14.7672C16.5672 14.3847 16.6872 13.9497 16.6872 13.5072C16.6872 12.8997 16.4547 12.3072 16.0347 11.8497C15.9822 11.7897 15.9222 11.7297 15.8622 11.6847C15.3897 11.2647 14.8422 11.0622 14.2497 11.0622Z" fill="#4A4B5C"/>
<path d="M15.3675 14.0469H13.125C12.8175 14.0469 12.5625 13.7919 12.5625 13.4844C12.5625 13.1769 12.8175 12.9219 13.125 12.9219H15.3675C15.675 12.9219 15.93 13.1769 15.93 13.4844C15.93 13.7919 15.6825 14.0469 15.3675 14.0469Z" fill="#4A4B5C"/>
<path d="M14.25 15.1956C13.9425 15.1956 13.6875 14.9406 13.6875 14.6331V12.3906C13.6875 12.0831 13.9425 11.8281 14.25 11.8281C14.5575 11.8281 14.8125 12.0831 14.8125 12.3906V14.6331C14.8125 14.9481 14.5575 15.1956 14.25 15.1956Z" fill="#4A4B5C"/>
<path d="M9 9.97563C8.9025 9.97563 8.805 9.95315 8.715 9.90065L2.09249 6.06816C1.82249 5.91066 1.7325 5.56564 1.89 5.29564C2.0475 5.02564 2.39249 4.93562 2.65499 5.09312L8.9925 8.76063L15.2925 5.11564C15.5625 4.95814 15.9075 5.05566 16.0575 5.31816C16.215 5.58816 16.1175 5.93313 15.855 6.09063L9.2775 9.90065C9.195 9.94565 9.0975 9.97563 9 9.97563Z" fill="#4A4B5C"/>
<path d="M9 16.7713C8.6925 16.7713 8.4375 16.5163 8.4375 16.2088V9.40625C8.4375 9.09875 8.6925 8.84375 9 8.84375C9.3075 8.84375 9.5625 9.09875 9.5625 9.40625V16.2088C9.5625 16.5163 9.3075 16.7713 9 16.7713Z" fill="#4A4B5C"/>
<path d="M9.00015 17.0639C8.34015 17.0639 7.68015 16.9214 7.17015 16.6289L3.16515 14.4089C2.07765 13.8089 1.22266 12.3614 1.22266 11.1164V6.87139C1.22266 5.62639 2.07765 4.18642 3.16515 3.57892L7.17015 1.35891C8.19015 0.781406 9.79515 0.781406 10.8226 1.35891L14.8277 3.57892C15.9152 4.17892 16.7702 5.62639 16.7702 6.87139V11.1164C16.7702 11.1914 16.7701 11.2514 16.7551 11.3264C16.7176 11.5214 16.5752 11.6864 16.3877 11.7464C16.2002 11.8139 15.9902 11.7689 15.8327 11.6414C14.9702 10.8914 13.6352 10.8614 12.7277 11.5889C12.1502 12.0464 11.8127 12.7439 11.8127 13.4864C11.8127 13.9289 11.9327 14.3639 12.1652 14.7389C12.2252 14.8439 12.2852 14.9264 12.3527 15.0089C12.4652 15.1364 12.5102 15.3089 12.4802 15.4739C12.4502 15.6389 12.3451 15.7814 12.1951 15.8639L10.8226 16.6214C10.3126 16.9214 9.66015 17.0639 9.00015 17.0639ZM9.00015 2.06391C8.53515 2.06391 8.06265 2.16141 7.72515 2.34891L3.72016 4.56893C2.99266 4.96643 2.36265 6.04639 2.36265 6.87139V11.1164C2.36265 11.9414 3.00016 13.0214 3.72016 13.4189L7.72515 15.6389C8.40765 16.0214 9.60016 16.0214 10.2827 15.6389L11.1227 15.1739C10.8452 14.6714 10.6951 14.0864 10.6951 13.4864C10.6951 12.3914 11.1826 11.3789 12.0301 10.7039C13.0501 9.88642 14.5126 9.71389 15.6526 10.2014V6.85642C15.6526 6.03142 15.0152 4.95141 14.2952 4.55391L10.2902 2.3339C9.93765 2.1614 9.46515 2.06391 9.00015 2.06391Z" fill="#4A4B5C"/>
</svg>
