<svg width="26" height="30" viewBox="0 0 26 30" fill="none" xmlns="http://www.w3.org/2000/svg">
<path d="M25.4551 23.3791C24.9883 24.4272 24.4357 25.392 23.7956 26.279C22.9229 27.4882 22.2084 28.3252 21.6578 28.7901C20.8042 29.553 19.8896 29.9437 18.9103 29.9659C18.2073 29.9659 17.3594 29.7715 16.3724 29.3771C15.3822 28.9845 14.4722 28.7901 13.6402 28.7901C12.7676 28.7901 11.8316 28.9845 10.8306 29.3771C9.82803 29.7715 9.02036 29.9771 8.40284 29.9974C7.46372 30.0363 6.52764 29.6345 5.59328 28.7901C4.99689 28.2845 4.25097 27.4179 3.35735 26.1901C2.3986 24.879 1.61039 23.3587 0.992862 21.6254C0.331526 19.7533 0 17.9404 0 16.1853C0 14.1748 0.446992 12.4408 1.3423 10.9876C2.04594 9.82047 2.98202 8.89975 4.1536 8.22386C5.32516 7.54795 6.59108 7.2035 7.95434 7.18149C8.70028 7.18149 9.67845 7.40573 10.8941 7.84646C12.1062 8.28868 12.8845 8.51292 13.2258 8.51292C13.4809 8.51292 14.3456 8.2507 15.8113 7.72795C17.1974 7.24315 18.3673 7.04238 19.3257 7.12148C21.9226 7.32517 23.8737 8.32014 25.1712 10.1127C22.8486 11.4804 21.6997 13.3961 21.7226 15.8536C21.7435 17.7678 22.458 19.3607 23.8622 20.6255C24.4986 21.2125 25.2093 21.6662 26 21.9884C25.8285 22.4717 25.6475 22.9347 25.4551 23.3791ZM19.4991 0.600178C19.4991 2.10051 18.9351 3.50138 17.8109 4.79801C16.4544 6.33946 14.8135 7.23016 13.0341 7.08961C13.0103 6.90099 12.9983 6.71113 12.9983 6.5211C12.9983 5.08078 13.6434 3.53933 14.7891 2.27901C15.3611 1.64088 16.0885 1.1103 16.9707 0.68703C17.851 0.270081 18.6836 0.0394964 19.4667 0C19.4895 0.200565 19.4991 0.40118 19.4991 0.600178Z" fill="black"/>
</svg>
