<svg width="40" height="40" viewBox="0 0 40 40" fill="none" xmlns="http://www.w3.org/2000/svg">
<path d="M10 3.33203L5 9.9987V33.332C5 34.2161 5.35119 35.0639 5.97631 35.6891C6.60143 36.3142 7.44928 36.6654 8.33333 36.6654H31.6667C32.5507 36.6654 33.3986 36.3142 34.0237 35.6891C34.6488 35.0639 35 34.2161 35 33.332V9.9987L30 3.33203H10Z" stroke="#00381F" stroke-width="2" stroke-linecap="round" stroke-linejoin="round"/>
<path d="M5 10H35" stroke="#00381F" stroke-width="2" stroke-linecap="round" stroke-linejoin="round"/>
<path d="M26.6673 16.668C26.6673 18.4361 25.9649 20.1318 24.7147 21.382C23.4645 22.6323 21.7688 23.3346 20.0007 23.3346C18.2325 23.3346 16.5368 22.6323 15.2866 21.382C14.0364 20.1318 13.334 18.4361 13.334 16.668" stroke="#00381F" stroke-width="2" stroke-linecap="round" stroke-linejoin="round"/>
</svg>
