<svg width="25" height="26" viewBox="0 0 25 26" fill="none" xmlns="http://www.w3.org/2000/svg">
<path d="M11.459 4.66797H4.16732C3.61478 4.66797 3.08488 4.88746 2.69418 5.27816C2.30348 5.66886 2.08398 6.19877 2.08398 6.7513V21.3346C2.08398 21.8872 2.30348 22.4171 2.69418 22.8078C3.08488 23.1985 3.61478 23.418 4.16732 23.418H18.7507C19.3032 23.418 19.8331 23.1985 20.2238 22.8078C20.6145 22.4171 20.834 21.8872 20.834 21.3346V14.043" stroke="black" stroke-width="2" stroke-linecap="round" stroke-linejoin="round"/>
<path d="M19.2715 3.10424C19.6859 2.68984 20.2479 2.45703 20.834 2.45703C21.42 2.45703 21.9821 2.68984 22.3965 3.10424C22.8109 3.51864 23.0437 4.08069 23.0437 4.66674C23.0437 5.25279 22.8109 5.81484 22.3965 6.22924L12.5007 16.1251L8.33398 17.1667L9.37565 13.0001L19.2715 3.10424Z" stroke="black" stroke-width="2" stroke-linecap="round" stroke-linejoin="round"/>
</svg>
