<svg width="7" height="13" viewBox="0 0 7 13" fill="none" xmlns="http://www.w3.org/2000/svg">
<path d="M5.0932 2.10863H6.70158C6.84955 2.10863 6.96964 1.99471 6.96964 1.85433V0.328521C6.96964 0.188146 6.84955 0.0742188 6.70158 0.0742188H5.0932C3.46766 0.0742188 2.1445 1.32894 2.1445 2.87154V4.65165H0.268063C0.120092 4.65165 0 4.76558 0 4.90595V6.43176C0 6.57214 0.120092 6.68607 0.268063 6.68607H2.1445V12.0264C2.1445 12.1668 2.2646 12.2807 2.41257 12.2807H4.02095C4.16892 12.2807 4.28901 12.1668 4.28901 12.0264V6.68607H6.16545C6.28072 6.68607 6.38312 6.61588 6.42011 6.51212L6.95624 4.98631C6.98358 4.909 6.96964 4.82356 6.91924 4.75693C6.86831 4.69081 6.78789 4.65165 6.70158 4.65165H4.28901V2.87154C4.28901 2.45092 4.64982 2.10863 5.0932 2.10863Z" fill="#0A142F"/>
</svg>
