<svg width="30" height="30" viewBox="0 0 30 30" fill="none" xmlns="http://www.w3.org/2000/svg">
<path d="M25 15C25 19.714 25 22.0711 23.5355 23.5355C22.0711 25 19.714 25 15 25C10.286 25 7.92893 25 6.46447 23.5355C5 22.0711 5 19.714 5 15C5 10.286 5 7.92893 6.46447 6.46447C7.92893 5 10.286 5 15 5" stroke="#02040F" stroke-opacity="0.6" stroke-width="1.5" stroke-linecap="round"/>
<path d="M19.1549 6.43415L21.5122 8.47712C23.1349 9.88345 23.9462 10.5866 23.9462 11.4999C23.9462 12.4131 23.1349 13.1163 21.5122 14.5226L19.1549 16.5656C18.4414 17.184 18.0846 17.4932 17.7923 17.3597C17.5 17.2262 17.5 16.7541 17.5 15.8099V14.2856C14.5 14.2856 11.25 15.6785 10 17.9999C10 10.5713 14.4444 8.71416 17.5 8.71416V7.18984C17.5 6.24562 17.5 5.77351 17.7923 5.64003C18.0846 5.50656 18.4414 5.81575 19.1549 6.43415Z" stroke="#02040F" stroke-opacity="0.6" stroke-width="1.5" stroke-linecap="round" stroke-linejoin="round"/>
</svg>
