<svg width="31" height="30" viewBox="0 0 31 30" fill="none" xmlns="http://www.w3.org/2000/svg">
<path d="M30.501 15.3429C30.5023 14.3207 30.4142 13.3003 30.2375 12.293H15.8047V18.0699H24.0711C23.902 18.9925 23.5439 19.872 23.0186 20.6554C22.4933 21.4388 21.8116 22.1098 21.0145 22.628V26.3779H25.948C28.8367 23.7676 30.501 19.9073 30.501 15.3429Z" fill="#4285F4"/>
<path d="M15.8029 5.93829C17.9854 5.90334 20.0943 6.71155 21.6737 8.18822L26.0418 3.90711C23.272 1.35735 19.6026 -0.0425125 15.8029 0.000984108C12.9661 0.00111082 10.1851 0.773989 7.77053 2.23333C5.35594 3.69268 3.40271 5.78105 2.12891 8.2653L7.2112 12.1298C8.42279 8.5757 11.811 5.93829 15.8029 5.93829Z" fill="#EA4335"/>
<path d="M15.8029 29.9999C19.9329 29.9999 23.4104 28.6707 25.9462 26.3791L21.0127 22.6293C19.6396 23.5417 17.8711 24.0626 15.8029 24.0626C11.811 24.0626 8.42279 21.4251 7.2112 17.8711H2.12891V21.7355C3.40271 24.2198 5.35594 26.3082 7.77053 27.7675C10.1851 29.2269 12.9661 29.9997 15.8029 29.9999Z" fill="#34A853"/>
<path d="M7.21193 17.8716C6.57141 16.0092 6.57141 13.9924 7.21193 12.1301V8.26562H2.12963C1.05807 10.3555 0.5 12.6619 0.5 15.0008C0.5 17.3397 1.05807 19.6462 2.12963 21.736L7.21193 17.8716Z" fill="#FBBC04"/>
</svg>
