<svg width="12" height="13" viewBox="0 0 12 13" fill="none" xmlns="http://www.w3.org/2000/svg">
<path d="M1.48355 3.06133C2.30289 3.06133 2.9671 2.39264 2.9671 1.56778C2.9671 0.742907 2.30289 0.0742188 1.48355 0.0742188C0.664208 0.0742188 0 0.742907 0 1.56778C0 2.39264 0.664208 3.06133 1.48355 3.06133Z" fill="#0A142F"/>
<path d="M2.71984 4.05859H0.247258C0.110772 4.05859 0 4.17011 0 4.30752V11.7753C0 11.9127 0.110772 12.0242 0.247258 12.0242H2.71984C2.85633 12.0242 2.9671 11.9127 2.9671 11.7753V4.30752C2.9671 4.17011 2.85633 4.05859 2.71984 4.05859Z" fill="#0A142F"/>
<path d="M10.0876 3.64314C9.03077 3.27871 7.70893 3.59883 6.91622 4.17286C6.88902 4.06582 6.7921 3.98616 6.67687 3.98616H4.20429C4.0678 3.98616 3.95703 4.09768 3.95703 4.23509V11.7029C3.95703 11.8403 4.0678 11.9518 4.20429 11.9518H6.67687C6.81336 11.9518 6.92413 11.8403 6.92413 11.7029V6.33602C7.3237 5.98952 7.83849 5.879 8.25982 6.05922C8.66829 6.23297 8.9022 6.65714 8.9022 7.2222V11.7029C8.9022 11.8403 9.01297 11.9518 9.14946 11.9518H11.622C11.7585 11.9518 11.8693 11.8403 11.8693 11.7029V6.72086C11.8411 4.67519 10.8852 3.91796 10.0876 3.64314Z" fill="#0A142F"/>
</svg>
