<svg width="44" height="38" viewBox="0 0 44 38" fill="none" xmlns="http://www.w3.org/2000/svg">
<path d="M39.2496 4.59425C38.2722 3.61329 37.1118 2.83511 35.8345 2.30419C34.5573 1.77327 33.1883 1.5 31.8057 1.5C30.4232 1.5 29.0542 1.77327 27.777 2.30419C26.4997 2.83511 25.3393 3.61329 24.3619 4.59425L22.3335 6.62916L20.3051 4.59425C18.3308 2.61369 15.6532 1.50103 12.8612 1.50103C10.0692 1.50103 7.39157 2.61369 5.41733 4.59425C3.4431 6.57481 2.33398 9.26103 2.33398 12.062C2.33398 14.8629 3.4431 17.5491 5.41733 19.5297L7.44574 21.5646L22.3335 36.5L37.2212 21.5646L39.2496 19.5297C40.2274 18.5492 41.0031 17.385 41.5324 16.1037C42.0616 14.8223 42.334 13.4489 42.334 12.062C42.334 10.675 42.0616 9.30161 41.5324 8.02027C41.0031 6.73894 40.2274 5.57476 39.2496 4.59425Z" stroke="black" stroke-width="3" stroke-linecap="round" stroke-linejoin="round"/>
</svg>
