<svg width="51" height="50" viewBox="0 0 51 50" fill="none" xmlns="http://www.w3.org/2000/svg">
<path fill-rule="evenodd" clip-rule="evenodd" d="M20.3542 10.6031C25.2587 5.90836 33.1889 5.90836 38.0934 10.6031C43.0288 15.3273 43.0288 23.0103 38.0934 27.7345L24.8466 40.4146C21.3632 43.749 15.7371 43.749 12.2537 40.4146C8.73941 37.0506 8.73941 31.5731 12.2537 28.2091L25.3098 15.7116C27.3722 13.7374 30.6942 13.7374 32.7566 15.7116C34.8498 17.7152 34.8498 20.9873 32.7566 22.9909L19.6051 35.5797C19.1064 36.0571 18.3151 36.0398 17.8378 35.5411C17.3604 35.0424 17.3777 34.2511 17.8764 33.7738L31.0279 21.1849C32.0927 20.1657 32.0927 18.5368 31.0279 17.5175C29.9322 16.4688 28.1342 16.4688 27.0385 17.5175L13.9824 30.0151C11.4965 32.3946 11.4965 36.229 13.9824 38.6086C16.4991 41.0176 20.6012 41.0176 23.1179 38.6086L36.3647 25.9286C40.2717 22.1887 40.2717 16.1489 36.3647 12.409C32.4269 8.6397 26.0207 8.6397 22.0829 12.409L11.4093 22.626C10.9106 23.1034 10.1193 23.0861 9.64194 22.5874C9.16456 22.0887 9.18186 21.2974 9.68057 20.8201L20.3542 10.6031Z" fill="#02040F"/>
</svg>
