<svg width="22" height="22" viewBox="0 0 22 22" fill="none" xmlns="http://www.w3.org/2000/svg">
<path d="M2.75 5.5H4.58333H19.25" stroke="black" stroke-width="2" stroke-linecap="round" stroke-linejoin="round"/>
<path d="M17.4173 5.4987V18.332C17.4173 18.8183 17.2242 19.2846 16.8803 19.6284C16.5365 19.9722 16.0702 20.1654 15.584 20.1654H6.41732C5.93109 20.1654 5.46477 19.9722 5.12096 19.6284C4.77714 19.2846 4.58398 18.8183 4.58398 18.332V5.4987M7.33398 5.4987V3.66536C7.33398 3.17913 7.52714 2.71282 7.87096 2.369C8.21477 2.02519 8.68109 1.83203 9.16732 1.83203H12.834C13.3202 1.83203 13.7865 2.02519 14.1303 2.369C14.4742 2.71282 14.6673 3.17913 14.6673 3.66536V5.4987" stroke="black" stroke-width="2" stroke-linecap="round" stroke-linejoin="round"/>
<path d="M9.16602 10.082V15.582" stroke="black" stroke-width="2" stroke-linecap="round" stroke-linejoin="round"/>
<path d="M12.834 10.082V15.582" stroke="black" stroke-width="2" stroke-linecap="round" stroke-linejoin="round"/>
</svg>
