<svg width="51" height="50" viewBox="0 0 51 50" fill="none" xmlns="http://www.w3.org/2000/svg">
<path fill-rule="evenodd" clip-rule="evenodd" d="M21.0103 11.5873L32.2863 16.6605C35.714 18.2026 38.4116 19.4163 40.2417 20.5656C42.0492 21.7008 43.4617 23.0468 43.4617 24.9998C43.4617 26.9528 42.0492 28.2987 40.2417 29.4339C38.4116 30.5833 35.714 31.7969 32.2863 33.3391L21.0103 38.4123C18.9152 39.3549 17.2854 40.0882 16.0128 40.564C14.7674 41.0297 13.6545 41.3356 12.6648 41.2279C10.2645 40.9669 8.19897 39.3209 7.69907 36.9971C7.4872 36.0122 7.78346 34.9104 8.20911 33.7658C8.64984 32.5807 9.3503 31.0591 10.2427 29.1206L10.2667 29.0683C10.9642 27.5533 11.2326 26.9555 11.3695 26.359C11.5755 25.4619 11.5755 24.5377 11.3695 23.6405C11.2326 23.0441 10.9642 22.4462 10.2667 20.9312L10.2427 20.8789C9.3503 18.9404 8.64983 17.4188 8.20911 16.2337C7.78346 15.0892 7.4872 13.9874 7.69907 13.0025C8.19897 10.6786 10.2645 9.03263 12.6648 8.7716C13.6545 8.66399 14.7674 8.96982 16.0128 9.4355C17.2854 9.91139 18.9152 10.6447 21.0103 11.5873ZM15.1371 11.7771C13.9135 11.3196 13.2884 11.2185 12.9351 11.257C11.455 11.4179 10.3861 12.399 10.1432 13.5282C10.098 13.7383 10.1295 14.2254 10.5523 15.3623C10.9561 16.4481 11.6161 17.8838 12.5377 19.8858C12.5579 19.9297 12.5778 19.973 12.5975 20.0158C13.2159 21.3586 13.6043 22.2021 13.8061 23.081C14.0967 24.3464 14.0967 25.6532 13.8061 26.9186C13.6043 27.7974 13.2159 28.6409 12.5975 29.9837C12.5778 30.0266 12.5579 30.0699 12.5377 30.1137C11.6161 32.1157 10.9561 33.5515 10.5523 34.6372C10.1295 35.7741 10.098 36.2612 10.1432 36.4713C10.3861 37.6005 11.455 38.5816 12.9351 38.7426C13.2884 38.781 13.9135 38.68 15.1371 38.2224C16.3243 37.7785 17.88 37.0792 20.0297 36.1121L31.1594 31.1047C34.7099 29.5073 37.2469 28.3626 38.9121 27.3168C40.6176 26.2457 40.9617 25.5498 40.9617 24.9998C40.9617 24.4497 40.6176 23.7539 38.9121 22.6827C37.2469 21.637 34.7099 20.4923 31.1594 18.8949L20.0297 13.8875C17.88 12.9203 16.3243 12.2211 15.1371 11.7771Z" fill="#02040F"/>
</svg>
