<svg width="26" height="26" viewBox="0 0 26 26" fill="none" xmlns="http://www.w3.org/2000/svg">
<path d="M19.6318 25.5637C19.3412 25.5637 19.052 25.4662 18.803 25.2721L12.9507 20.687L7.09838 25.2721C6.85591 25.4627 6.56452 25.5647 6.26582 25.5636C5.96712 25.5624 5.67639 25.4582 5.43513 25.2658C5.19365 25.0745 5.01353 24.8049 4.92041 24.4953C4.82728 24.1858 4.82589 23.852 4.91644 23.5415L7.0991 15.8457L1.29929 11.3809C1.05893 11.1871 0.880418 10.9156 0.789015 10.6049C0.697612 10.2942 0.697941 9.95997 0.789957 9.64947C0.882699 9.33973 1.0622 9.06967 1.30308 8.87744C1.54397 8.68522 1.83406 8.58056 2.13236 8.57826L9.31558 8.56647L11.6026 1.06166C11.6969 0.752497 11.878 0.483606 12.12 0.293068C12.362 0.102529 12.6528 0 12.9511 0C13.2494 0 13.5401 0.102529 13.7822 0.293068C14.0242 0.483606 14.2052 0.752497 14.2996 1.06166L16.5477 8.56647L23.7676 8.57826C24.0663 8.5801 24.3568 8.6847 24.5979 8.87722C24.8391 9.06973 25.0185 9.34035 25.1108 9.65065C25.2032 9.96095 25.2036 10.2951 25.1122 10.6057C25.0207 10.9163 24.842 11.1876 24.6014 11.3809L18.8016 15.8457L20.9843 23.5415C21.075 23.8519 21.0738 24.1857 20.9808 24.4953C20.8878 24.8049 20.7077 25.0745 20.4663 25.2658C20.2243 25.4597 19.9319 25.5641 19.6318 25.5637Z" fill="#FFAC33"/>
</svg>
