<svg width="31" height="30" viewBox="0 0 31 30" fill="none" xmlns="http://www.w3.org/2000/svg">
<path d="M9.01172 21.25H6.51172C6.13672 21.25 5.88672 21 5.88672 20.625V18.125C5.88672 17.75 6.13672 17.5 6.51172 17.5H9.01172C9.38672 17.5 9.63672 17.75 9.63672 18.125V20.625C9.63672 21 9.38672 21.25 9.01172 21.25ZM7.13672 20H8.38672V18.75H7.13672V20ZM13.3867 18.75H11.5117C11.1367 18.75 10.8867 18.5 10.8867 18.125C10.8867 17.75 11.1367 17.5 11.5117 17.5H13.3867C13.7617 17.5 14.0117 17.75 14.0117 18.125C14.0117 18.5 13.7617 18.75 13.3867 18.75ZM15.8867 21.25H11.5117C11.1367 21.25 10.8867 21 10.8867 20.625C10.8867 20.25 11.1367 20 11.5117 20H15.8867C16.2617 20 16.5117 20.25 16.5117 20.625C16.5117 21 16.2617 21.25 15.8867 21.25ZM28.3867 11.25H26.5117C26.1367 11.25 25.8867 11.5 25.8867 11.875V12.375C25.2617 12 25.2617 11.25 25.2617 11C25.2617 10.125 24.5117 9.375 23.6367 9.375C22.7617 9.375 22.1367 10.125 22.1367 11V12.5H18.6367C17.7617 12.5 17.0117 13.25 17.0117 14.125C17.0117 14.25 17.0117 14.375 17.1367 14.5H16.1367C15.2617 14.5 14.5117 15.25 14.5117 16.125C14.5117 17 15.2617 17.75 16.1367 17.75H16.5117C16.5117 17.875 16.3867 18 16.3867 18.125C16.3867 19 17.1367 19.75 18.0117 19.75H19.0117C19.0117 19.875 18.8867 20 18.8867 20.125C18.8867 21 19.6367 21.75 20.5117 21.75H25.8867V22.375C25.8867 22.75 26.1367 23 26.5117 23H28.3867C28.7617 23 29.0117 22.75 29.0117 22.375V12.375C29.0117 11.5 28.7617 11.25 28.3867 11.25ZM20.6367 20C20.5117 20 20.2617 19.875 20.2617 19.625C20.2617 19.375 20.3867 19.25 20.6367 19.25H22.8867C23.2617 19.25 23.5117 19 23.5117 18.625C23.5117 18.25 23.2617 18 22.8867 18H20.6367H18.1367C18.0117 18 17.7617 17.875 17.7617 17.625C17.7617 17.375 17.8867 17.25 18.1367 17.25H22.8867C23.2617 17.25 23.5117 17 23.5117 16.625C23.5117 16.25 23.1367 16.25 22.7617 16.25H18.0117H16.1367C16.0117 16.25 15.7617 16.125 15.7617 15.875C15.7617 15.625 15.8867 15.5 16.1367 15.5H18.6367H22.7617C23.1367 15.5 23.3867 15.25 23.3867 14.875C23.3867 14.5 23.1367 14.25 22.7617 14.25H18.6367C18.5117 14.25 18.2617 14.125 18.2617 13.875C18.2617 13.625 18.3867 13.5 18.6367 13.5H22.7617C23.1367 13.5 23.3867 13.25 23.3867 12.875V11C23.3867 10.625 24.0117 10.625 24.0117 11C24.0117 11.875 24.3867 13.375 25.8867 13.75V20H20.6367ZM27.7617 21.25H27.1367V12.5H27.7617V21.25Z" fill="#F6F6F6"/>
<path d="M23.386 8.75C23.761 8.75 24.011 8.5 24.011 8.125V6.875C24.011 6.75 24.011 6.75 24.011 6.625L22.511 3.5C22.386 3.25 22.136 3.125 22.011 3.125H5.76103C5.51103 3.125 5.26103 3.25 5.26103 3.5L3.51103 6.625C3.51103 6.75 3.51103 6.75 3.51103 6.875V23.125C3.38603 23.5 3.63603 23.75 4.01103 23.75H23.386C23.761 23.75 24.011 23.5 24.011 23.125V22.5C24.011 22.125 23.761 21.875 23.386 21.875C23.011 21.875 22.761 22.125 22.761 22.5H4.63603V7.5H10.511V10.625C10.511 10.875 10.636 11 10.761 11.125C11.011 11.25 11.261 11.25 11.386 11.125L13.761 10L16.011 11.125C16.011 11.25 16.136 11.25 16.261 11.25C16.386 11.25 16.511 11.25 16.636 11.125C16.761 11 16.886 10.75 16.886 10.625V7.5H22.761V8.125C22.761 8.5 23.011 8.75 23.386 8.75ZM14.761 4.375L15.386 6.25H12.011L12.636 4.375H14.761ZM6.01103 4.375H11.386L10.761 6.25H5.01103L6.01103 4.375ZM15.636 9.625L14.011 8.75C13.886 8.75 13.761 8.75 13.761 8.75C13.761 8.75 13.511 8.75 13.386 8.75L11.761 9.625V7.5H15.636V9.625ZM16.761 6.25L16.136 4.375H21.511L22.386 6.25H16.761Z" fill="#F6F6F6"/>
</svg>
