<svg width="17" height="17" viewBox="0 0 17 17" fill="none" xmlns="http://www.w3.org/2000/svg">
<g clip-path="url(#clip0_201_418)">
<path d="M10.5007 1.16406H6.50065C6.13246 1.16406 5.83398 1.46254 5.83398 1.83073V3.16406C5.83398 3.53225 6.13246 3.83073 6.50065 3.83073H10.5007C10.8688 3.83073 11.1673 3.53225 11.1673 3.16406V1.83073C11.1673 1.46254 10.8688 1.16406 10.5007 1.16406Z" stroke="white" stroke-linecap="round" stroke-linejoin="round"/>
<path d="M11.166 3.83203H12.4993C12.853 3.83203 13.1921 3.97251 13.4422 4.22256C13.6922 4.4726 13.8327 4.81174 13.8327 5.16536V14.4987C13.8327 14.8523 13.6922 15.1915 13.4422 15.4415C13.1921 15.6916 12.853 15.832 12.4993 15.832H4.49935C4.14573 15.832 3.80659 15.6916 3.55654 15.4415C3.30649 15.1915 3.16602 14.8523 3.16602 14.4987V5.16536C3.16602 4.81174 3.30649 4.4726 3.55654 4.22256C3.80659 3.97251 4.14573 3.83203 4.49935 3.83203H5.83268" stroke="white" stroke-linecap="round" stroke-linejoin="round"/>
<path d="M5.83398 7.10938H10.548" stroke="white" stroke-linecap="round"/>
<path d="M5.83398 9.88672H10.548" stroke="white" stroke-linecap="round"/>
<path d="M5.83398 12.6641H10.548" stroke="white" stroke-linecap="round"/>
</g>
<defs>
<clipPath id="clip0_201_418">
<rect width="16" height="16.6667" fill="white" transform="translate(0.5 0.164062)"/>
</clipPath>
</defs>
</svg>
