<svg width="41" height="40" viewBox="0 0 41 40" fill="none" xmlns="http://www.w3.org/2000/svg">
<path d="M26.7871 7.19922H29.7871C30.5828 7.19922 31.3458 7.54573 31.9084 8.16251C32.471 8.7793 32.7871 9.61584 32.7871 10.4881V33.5103C32.7871 34.3826 32.471 35.2191 31.9084 35.8359C31.3458 36.4527 30.5828 36.7992 29.7871 36.7992H11.7871C10.9915 36.7992 10.2284 36.4527 9.66579 35.8359C9.10318 35.2191 8.78711 34.3826 8.78711 33.5103V10.4881C8.78711 9.61584 9.10318 8.7793 9.66579 8.16251C10.2284 7.54573 10.9915 7.19922 11.7871 7.19922H14.7871" stroke="white" stroke-width="2.5" stroke-linecap="round" stroke-linejoin="round"/>
<path d="M24.9875 4H16.5875C15.8143 4 15.1875 4.80589 15.1875 5.8V9.4C15.1875 10.3941 15.8143 11.2 16.5875 11.2H24.9875C25.7607 11.2 26.3875 10.3941 26.3875 9.4V5.8C26.3875 4.80589 25.7607 4 24.9875 4Z" stroke="white" stroke-width="2.5" stroke-linecap="round" stroke-linejoin="round"/>
<path d="M13.7871 17H28.1871" stroke="white" stroke-width="2.5" stroke-linecap="round"/>
<path d="M13.7871 23H28.1871" stroke="white" stroke-width="2.5" stroke-linecap="round"/>
<path d="M13.7871 30H28.1871" stroke="white" stroke-width="2.5" stroke-linecap="round"/>
</svg>
