<svg width="33" height="28" viewBox="0 0 33 28" fill="none" xmlns="http://www.w3.org/2000/svg">
<path d="M4.33984 22.6594C4.33984 23.5781 4.69689 24.4592 5.33243 25.1089C5.96797 25.7585 6.82994 26.1235 7.72873 26.1235C8.62752 26.1235 9.4895 25.7585 10.125 25.1089C10.7606 24.4592 11.1176 23.5781 11.1176 22.6594C11.1176 21.7407 10.7606 20.8596 10.125 20.2099C9.4895 19.5603 8.62752 19.1953 7.72873 19.1953C6.82994 19.1953 5.96797 19.5603 5.33243 20.2099C4.69689 20.8596 4.33984 21.7407 4.33984 22.6594ZM21.2843 22.6594C21.2843 23.5781 21.6413 24.4592 22.2769 25.1089C22.9124 25.7585 23.7744 26.1235 24.6732 26.1235C25.572 26.1235 26.4339 25.7585 27.0695 25.1089C27.705 24.4592 28.0621 23.5781 28.0621 22.6594C28.0621 21.7407 27.705 20.8596 27.0695 20.2099C26.4339 19.5603 25.572 19.1953 24.6732 19.1953C23.7744 19.1953 22.9124 19.5603 22.2769 20.2099C21.6413 20.8596 21.2843 21.7407 21.2843 22.6594Z" stroke="white" stroke-width="2" stroke-linecap="round" stroke-linejoin="round"/>
<path d="M4.82248 22.6594H1.43359V3.60704C1.43359 3.14767 1.61211 2.70712 1.92988 2.3823C2.24765 2.05748 2.67864 1.875 3.12804 1.875H18.378V22.6594M11.6003 22.6594H21.7669M28.5447 22.6594H31.9336V12.2672M31.9336 12.2672H18.378M31.9336 12.2672L26.8503 3.60704H18.378" stroke="white" stroke-width="2" stroke-linecap="round" stroke-linejoin="round"/>
</svg>
