<svg width="20" height="20" viewBox="0 0 20 20" fill="none" xmlns="http://www.w3.org/2000/svg">
<path d="M13.332 2.5H0.832031V13.3333H13.332V2.5Z" stroke="black" stroke-linecap="round" stroke-linejoin="round"/>
<path d="M13.332 6.66797H16.6654L19.1654 9.16797V13.3346H13.332V6.66797Z" stroke="black" stroke-linecap="round" stroke-linejoin="round"/>
<path d="M4.58333 17.4987C5.73393 17.4987 6.66667 16.566 6.66667 15.4154C6.66667 14.2648 5.73393 13.332 4.58333 13.332C3.43274 13.332 2.5 14.2648 2.5 15.4154C2.5 16.566 3.43274 17.4987 4.58333 17.4987Z" stroke="black" stroke-linecap="round" stroke-linejoin="round"/>
<path d="M15.4154 17.4987C16.566 17.4987 17.4987 16.566 17.4987 15.4154C17.4987 14.2648 16.566 13.332 15.4154 13.332C14.2648 13.332 13.332 14.2648 13.332 15.4154C13.332 16.566 14.2648 17.4987 15.4154 17.4987Z" stroke="black" stroke-linecap="round" stroke-linejoin="round"/>
</svg>
