<svg width="13" height="11" viewBox="0 0 13 11" fill="none" xmlns="http://www.w3.org/2000/svg">
<path d="M12.2202 1.35915C12.139 1.26674 12.0081 1.2435 11.9007 1.3005C11.8339 1.33591 11.7083 1.38239 11.5592 1.42831C11.7473 1.16936 11.8985 0.879423 11.9653 0.618811C11.9942 0.506488 11.952 0.388079 11.8601 0.321128C11.7682 0.25473 11.6458 0.25473 11.5539 0.321128C11.4091 0.425704 10.7102 0.739987 10.2683 0.841797C9.26957 -0.0639798 8.10738 -0.158043 6.89924 0.572333C5.91712 1.16604 5.70338 2.37337 5.74506 3.10928C3.49709 2.88519 2.09979 1.65572 1.31324 0.638177C1.2582 0.5668 1.1695 0.529174 1.08614 0.534707C0.998509 0.541347 0.919427 0.591699 0.874542 0.669716C0.502641 1.31986 0.399513 2.03862 0.577449 2.74852C0.674699 3.13584 0.844619 3.47724 1.04179 3.7539C0.947213 3.70576 0.85584 3.64545 0.769811 3.57352C0.690729 3.50601 0.58012 3.49328 0.486611 3.5381C0.393635 3.58403 0.334323 3.68141 0.334323 3.7882C0.334323 5.00716 1.07065 5.82053 1.75834 6.24548C1.6472 6.23164 1.53125 6.20619 1.41423 6.16912C1.31377 6.13758 1.20476 6.16912 1.1353 6.25101C1.06584 6.33235 1.04927 6.44854 1.09255 6.54759C1.47888 7.43234 2.21093 8.04098 3.11664 8.26176C2.32581 8.74259 1.26728 8.9783 0.297988 8.86266C0.172418 8.8444 0.0527257 8.92684 0.0131845 9.05189C-0.0263567 9.17694 0.0254743 9.31416 0.136083 9.37835C1.60659 10.2332 2.93603 10.5386 4.08486 10.5386C5.75682 10.5386 7.04725 9.89238 7.83273 9.35179C9.95032 7.89657 11.2701 5.28381 11.0863 2.94606C11.4256 2.68655 11.9333 2.20738 12.248 1.69224C12.3132 1.58822 12.3014 1.451 12.2202 1.35915Z" fill="#0A142F"/>
</svg>
