<svg width="20" height="20" viewBox="0 0 20 20" fill="none" xmlns="http://www.w3.org/2000/svg">
<path d="M3.33203 14.9974C3.33203 14.1133 3.68322 13.2655 4.30834 12.6404C4.93346 12.0153 5.78131 11.6641 6.66536 11.6641H13.332C14.2161 11.6641 15.0639 12.0153 15.6891 12.6404C16.3142 13.2655 16.6654 14.1133 16.6654 14.9974C16.6654 15.4394 16.4898 15.8633 16.1772 16.1759C15.8646 16.4885 15.4407 16.6641 14.9987 16.6641H4.9987C4.55667 16.6641 4.13275 16.4885 3.82019 16.1759C3.50763 15.8633 3.33203 15.4394 3.33203 14.9974Z" stroke="black" stroke-linejoin="round"/>
<path d="M10 8.33203C11.3807 8.33203 12.5 7.21274 12.5 5.83203C12.5 4.45132 11.3807 3.33203 10 3.33203C8.61929 3.33203 7.5 4.45132 7.5 5.83203C7.5 7.21274 8.61929 8.33203 10 8.33203Z" stroke="black"/>
</svg>
